PathFileType	4	(X/Y/Z)	Patient4_TMGait_0pt4_01_left_11.trc.trc
DataRate	CameraRate	NumFrames	NumMarkers	Units	OrigDataRate	OrigDataStartFrame	OrigNumFrames
76.923076923077	76.923076923077	5	33	mm	76.923076923077	106	       141
Frame#	Time	Sacral			L.Shoulder			Chest			R.Shoulder			Neck			R.ASIS			L.ASIS			R.Thigh.Superior			R.Thigh.Lateral			R.Thigh.Inferior			R.Patella			L.Thigh.Superior			L.Thigh.Lateral			L.Thigh.Inferior			L.Patella			L.Shank.Superior			L.Shank.Lateral			L.Shank.Inferior			R.Shank.Superior			R.Shank.Lateral			R.Shank.Inferior			R.Heel			R.Midfoot.Superior			R.Midfoot.Lateral			R.Toe			L.Heel			L.Midfoot.Lateral			L.Midfoot.Superior			L.Toe			L.Elbow			L.Wrist			R.Elbow			R.Wrist			
		X1	Y1	Z1	X2	Y2	Z2	X3	Y3	Z3	X4	Y4	Z4	X5	Y5	Z5	X6	Y6	Z6	X7	Y7	Z7	X8	Y8	Z8	X9	Y9	Z9	X10	Y10	Z10	X11	Y11	Z11	X12	Y12	Z12	X13	Y13	Z13	X14	Y14	Z14	X15	Y15	Z15	X16	Y16	Z16	X17	Y17	Z17	X18	Y18	Z18	X19	Y19	Z19	X20	Y20	Z20	X21	Y21	Z21	X22	Y22	Z22	X23	Y23	Z23	X24	Y24	Z24	X25	Y25	Z25	X26	Y26	Z26	X27	Y27	Z27	X28	Y28	Z28	X29	Y29	Z29	X30	Y30	Z30	X31	Y31	Z31	X32	Y32	Z32	X33	Y33	Z33	

106	14.705000000000	812.201174120369	1009.732799625756	542.072667342574	979.562078303749	1435.410460721688	344.479371773543	1095.328701315676	1367.914156184273	496.635965875003	1029.385839850983	1442.864618173081	677.611395620892	980.272723972902	1499.216158955104	500.985090747237	1049.327911754389	942.490028622881	637.368347317707	1011.899163996312	969.497586956545	366.203676062610	1069.963583259442	735.666980055163	601.433914357576	984.429192988382	631.174472281069	667.027926435687	1050.403710992929	574.963555579483	580.865306538284	1042.429711155083	489.378322959999	585.182753572337	1096.789438077678	788.267313117458	392.575772977899	1051.828333750465	659.735854260617	315.900157313300	1156.866777621679	599.821999413963	374.101788396046	1175.994383696283	518.112384266883	366.086915833686	1129.095191843117	444.626615527383	357.781731142531	1008.947398049743	359.987366456850	310.672930390973	1043.006479945679	232.555092539948	361.978120139346	1011.296825665977	401.615419732922	592.601241297010	938.156200480974	300.416370592642	655.914148105321	972.041075045274	205.232709478269	588.712669997789	829.685439022606	43.144615865066	560.198304711956	1002.250375893249	96.588577196281	593.118722489376	914.485633987164	36.883619791500	633.417013294282	1122.847240920074	41.509184653902	617.582054980888	889.400264239828	103.953598851597	403.974154785386	954.558977387409	86.175905615453	318.955664396727	1050.656953462320	129.960706787984	337.498174957592	1161.101184111158	54.929240513097	299.408800980680	885.563444300299	1088.078998859493	253.676669110244	909.527572388435	827.599936592316	252.078587135912	1074.560309382037	1114.323568736748	829.845205876618	1314.622249738413	1032.273179684439	801.108750169769	
107	14.718000000000	811.188551098272	1010.341411526556	543.041063307887	978.769469982421	1435.506864530647	344.910810263653	1095.497933215959	1367.304396155188	495.996189170426	1031.429529678339	1442.413461929421	677.589789468132	981.037811701193	1499.120523145913	501.356609048211	1048.430638606815	941.977302695996	636.549611428922	1009.606328313024	969.687756924611	365.642386578729	1066.861860935880	734.956869832870	600.355629117308	981.084740877768	631.102710128907	666.913060350465	1045.741164919850	574.390199099246	580.272457786816	1037.189837230787	489.178349947481	584.825775891201	1094.037062937909	788.583326592698	392.368117294625	1049.491516986964	660.094939412044	315.319406186593	1153.649044404157	600.108223388954	374.955237438289	1174.221857750428	520.368499420191	366.731140970953	1131.109560349563	446.493964256149	357.729128230273	1017.130725788487	354.878483052605	309.000151333600	1058.579380635943	229.318544257653	360.371198627777	1006.104347603307	401.503327700762	592.400101329729	933.126462205663	300.314562742336	655.889489440363	966.725279997777	205.126827250178	588.584705103141	824.400771440363	43.082636995746	560.206493901272	996.919176404887	96.530576322675	593.068631252232	909.233493424870	36.848406745761	633.463145559988	1117.564559312139	41.526998886476	617.570678262911	912.960833193486	91.596499660254	400.555664843910	980.213211186144	77.455701812960	316.533112253632	1073.345277753455	126.753228772298	336.062498087937	1188.432066519611	58.151636477087	299.871719471622	881.232401269003	1088.927216407060	255.505823795710	902.776513394314	828.170937942071	254.066149798158	1081.081043685738	1114.130486073458	828.445813420396	1323.285306109665	1040.144569372306	797.619298218330	
108	14.731000000000	810.177731296556	1010.843943123203	543.860616495722	978.045397577211	1435.469538516262	345.153392277059	1095.673892666506	1366.606266566529	495.222910962116	1033.408336477436	1441.908245521582	677.384287864856	981.824111553158	1498.940190980593	501.524359077068	1047.550911563446	941.438051495879	635.688708616322	1007.412872502921	969.732435232501	365.017066234587	1063.950195396510	734.248655723320	599.449039295446	977.818000349282	631.019421227011	666.813375735253	1041.278064388185	573.810940716104	579.820038730000	1032.136579894054	488.961135310094	584.569159250780	1091.063470707736	788.463836839205	392.105967937980	1046.868074696618	660.181907248697	314.535386818145	1149.957303925163	599.950734992091	375.809862798542	1171.949934401678	522.323631942550	367.384429564035	1132.622861505431	448.280960315389	357.746438500665	1025.274268031725	350.026172860447	307.247739666578	1073.788663625359	226.806490109401	359.008700057613	1001.061516235031	401.387279548028	592.254314468778	928.185446548768	300.222970629960	655.903215019322	961.479781879549	205.020114243552	588.489885501306	819.128238790630	43.045503401778	560.222494237682	991.612233614385	96.475359132087	593.033540478376	903.996287168039	36.814829107841	633.506236899521	1112.298584091414	41.515927303129	617.561070182051	936.447720238107	80.628257723641	397.199251831450	1005.856740170070	69.906676634782	314.458231982734	1095.703103876404	124.513249554799	335.105769566769	1215.085879100902	62.312770526101	301.420957232362	877.384554760599	1089.574726701230	257.050072394263	896.751997125988	828.596752832595	255.624822280174	1087.303232952248	1113.814666272236	826.673018354508	1331.302715045211	1047.721947652125	793.736598992114	
109	14.744000000000	809.182259029716	1011.246502230532	544.524497235110	977.390902589544	1435.313060087540	345.192916064110	1095.844691748250	1365.847166067823	494.319316811475	1035.282186421601	1441.377102482893	676.986231654996	982.611372598417	1498.692189489724	501.472746916134	1046.705069754852	940.890551154308	634.811315612696	1005.336800617301	969.646361425284	364.342089568906	1061.248884423460	733.541880903874	598.735770361355	974.615726739544	630.932354437796	666.718083706060	1037.021066825462	573.227135213841	579.504548901464	1027.273483238694	488.724819163743	584.390342704317	1087.938491938303	787.979337588605	391.793765039299	1044.060872504842	660.048925692271	313.571962136601	1145.990847704606	599.461730260201	376.574708509551	1169.347449365570	524.017722673681	367.986086974885	1133.716141872181	449.998602510552	357.799420209356	1033.215893786308	345.598922290958	305.530611455145	1088.332760317237	225.102215989283	357.946815224860	996.166492816717	401.266838092475	592.147294417972	923.327888106677	300.147742297907	655.938304828861	956.310240438163	204.917312327419	588.422611054687	813.867486901528	43.030702877552	560.246031667301	986.330326517797	96.427914563096	593.014909837190	898.770767798293	36.783748529055	633.543497288154	1107.046625962644	41.484794224997	617.555627726498	959.338727824517	71.269494728911	394.130170847704	1030.872214094976	63.707691364227	312.848178312243	1117.223377621402	123.323686459489	334.635369324389	1240.474991618329	67.382299084059	303.856238749586	874.011297268011	1090.023004402804	258.283282584826	891.466307050814	828.876182904062	256.726596730161	1093.228543650623	1113.404827842857	824.530757429467	1338.678469844036	1054.941766990574	789.481041885415	
110	14.757000000000	808.221899844037	1011.558313113847	545.027102290689	976.804365611051	1435.056130062952	345.018853282797	1096.000005802792	1365.057186268929	493.288839237448	1037.015996926720	1440.848981142396	676.389144005772	983.376957706266	1498.395174825153	501.190364524736	1045.909767127328	940.351426437933	633.936958579601	1003.397366104720	969.449271720460	363.625292451543	1058.760794709681	732.836321683805	598.208328223342	971.470494556463	630.848347578501	666.613041865592	1032.967447083811	572.642215881594	579.305058909873	1022.599049808278	488.467692862828	584.261722162077	1084.758477905504	787.222441909098	391.427488092791	1041.173959187119	659.743606839773	312.481547665009	1141.966482181590	598.757349699083	377.157782420741	1166.588872211260	525.481393393471	368.478859886795	1134.474048157264	451.636017145096	357.849368711010	1040.749572953694	341.710919082067	303.980037882974	1101.906292715550	224.194804479875	357.214400447719	991.413603721270	401.140151216783	592.059589586278	918.547296229552	300.093644393557	655.976290058830	951.218447146973	204.821743390934	588.375035335909	808.616854352140	43.035432729692	560.276011547043	981.072302595839	96.392091891089	593.012481411574	893.552087688154	36.755856121173	633.571235037231	1101.804596400620	41.443679246069	617.555446211581	981.092622651484	63.604846408592	391.575293120727	1054.595146306653	58.907269425397	311.787486125718	1137.386431015342	123.144347311722	334.607318286958	1264.011778225710	73.192796503532	306.857461089063	871.105554109667	1090.282433791162	259.179342317258	886.934525658216	829.014405215000	257.354152951261	1098.851573698002	1112.935857526944	822.028020057779	1345.420193913104	1061.750298029949	784.875775588079	
